# xmcd
#
# Track frame offsets: 
#        150
#        20229
#        37615
#        61354
#        92546
#        117150
#        142735
#        173243
#        210185
#        252008
#        262445
#
# Disc length: 3792 seconds
#
# Revision: 0
# Processed by: cddbd v1.5.2PL0 Copyright (c) Steve Scherf et al.
# Submitted via: ExactAudioCopyFreeDBPlugin 1.0
#
DISCID=8d0ece0b
DTITLE=Jimmy Thackery and The Drivers - Solid Ice
DYEAR=2007
DGENRE=Blues
TTITLE0=Hit The Big Time
TTITLE1=How Long
TTITLE2=Fifteen Minutes
TTITLE3=Hobart's Blues
TTITLE4=Daze In May
TTITLE5=Blue Tears
TTITLE6=XXX Wife
TTITLE7=One Or The Other
TTITLE8=Solid Ice
TTITLE9=Blue Tears (Reprise)
TTITLE10=Who Knows-Jam
EXTD=
EXTT0=
EXTT1=
EXTT2=
EXTT3=
EXTT4=
EXTT5=
EXTT6=
EXTT7=
EXTT8=
EXTT9=
EXTT10=
PLAYORDER=
